<svg width="1200" height="628" viewBox="0 0 1200 628" xmlns="http://www.w3.org/2000/svg">
<defs><linearGradient id="bar" x1="0" y1="0" x2="1" y2="0"><stop offset="0%" stop-color="#1d6fa8"/><stop offset="100%" stop-color="#4db8ff"/></linearGradient></defs>
<rect width="1200" height="628" fill="#070d1a"/><line x1="0" y1="0" x2="0" y2="628" stroke="#ffffff" stroke-opacity="0.03" stroke-width="1"/><line x1="80" y1="0" x2="80" y2="628" stroke="#ffffff" stroke-opacity="0.03" stroke-width="1"/><line x1="160" y1="0" x2="160" y2="628" stroke="#ffffff" stroke-opacity="0.03" stroke-width="1"/><line x1="240" y1="0" x2="240" y2="628" stroke="#ffffff" stroke-opacity="0.03" stroke-width="1"/><line x1="320" y1="0" x2="320" y2="628" stroke="#ffffff" stroke-opacity="0.03" stroke-width="1"/><line x1="400" y1="0" x2="400" y2="628" stroke="#ffffff" stroke-opacity="0.03" stroke-width="1"/><line x1="480" y1="0" x2="480" y2="628" stroke="#ffffff" stroke-opacity="0.03" stroke-width="1"/><line x1="560" y1="0" x2="560" y2="628" stroke="#ffffff" stroke-opacity="0.03" stroke-width="1"/><line x1="640" y1="0" x2="640" y2="628" stroke="#ffffff" stroke-opacity="0.03" stroke-width="1"/><line x1="720" y1="0" x2="720" y2="628" stroke="#ffffff" stroke-opacity="0.03" stroke-width="1"/><line x1="800" y1="0" x2="800" y2="628" stroke="#ffffff" stroke-opacity="0.03" stroke-width="1"/><line x1="880" y1="0" x2="880" y2="628" stroke="#ffffff" stroke-opacity="0.03" stroke-width="1"/><line x1="960" y1="0" x2="960" y2="628" stroke="#ffffff" stroke-opacity="0.03" stroke-width="1"/><line x1="1040" y1="0" x2="1040" y2="628" stroke="#ffffff" stroke-opacity="0.03" stroke-width="1"/><line x1="1120" y1="0" x2="1120" y2="628" stroke="#ffffff" stroke-opacity="0.03" stroke-width="1"/><line x1="1200" y1="0" x2="1200" y2="628" stroke="#ffffff" stroke-opacity="0.03" stroke-width="1"/><line x1="0" y1="0" x2="1200" y2="0" stroke="#ffffff" stroke-opacity="0.03" stroke-width="1"/><line x1="0" y1="80" x2="1200" y2="80" stroke="#ffffff" stroke-opacity="0.03" stroke-width="1"/><line x1="0" y1="160" x2="1200" y2="160" stroke="#ffffff" stroke-opacity="0.03" stroke-width="1"/><line x1="0" y1="240" x2="1200" y2="240" stroke="#ffffff" stroke-opacity="0.03" stroke-width="1"/><line x1="0" y1="320" x2="1200" y2="320" stroke="#ffffff" stroke-opacity="0.03" stroke-width="1"/><line x1="0" y1="400" x2="1200" y2="400" stroke="#ffffff" stroke-opacity="0.03" stroke-width="1"/><line x1="0" y1="480" x2="1200" y2="480" stroke="#ffffff" stroke-opacity="0.03" stroke-width="1"/><line x1="0" y1="560" x2="1200" y2="560" stroke="#ffffff" stroke-opacity="0.03" stroke-width="1"/><line x1="0" y1="640" x2="1200" y2="640" stroke="#ffffff" stroke-opacity="0.03" stroke-width="1"/><circle cx="960" cy="120" r="220" fill="#4db8ff" fill-opacity="0.04"/><circle cx="180" cy="480" r="160" fill="#4db8ff" fill-opacity="0.03"/><rect x="60" y="60" width="1080" height="508" fill="#ffffff" fill-opacity="0.02" rx="8" stroke="#4db8ff" stroke-opacity="0.15" stroke-width="1"/>
<text x="100" y="76" font-family="system-ui,-apple-system,Arial,sans-serif" font-size="16" font-weight="600" letter-spacing="4" fill="#7cc8f8" fill-opacity="0.7">IMMORTALITY INDEX</text>
<text x="100" y="163" font-family="system-ui,-apple-system,Arial,sans-serif" font-size="63" font-weight="800" fill="#ffffff" letter-spacing="-1">The science of aging</text>
<text x="100" y="237" font-family="system-ui,-apple-system,Arial,sans-serif" font-size="63" font-weight="800" fill="#ffffff" letter-spacing="-1">has become actionable</text>
<line x1="100" y1="265" x2="1100" y2="265" stroke="#4db8ff" stroke-opacity="0.18" stroke-width="1"/>
<text x="100" y="319" font-family="system-ui,-apple-system,Arial,sans-serif" font-size="28" font-weight="500" fill="#b4d2ff" fill-opacity="0.85">Genetics Track</text>
<text x="860" y="319" font-family="system-ui,-apple-system,Arial,sans-serif" font-size="30" font-weight="700" fill="#ffffff" text-anchor="end">25 / 69</text>
<text x="1060" y="319" font-family="system-ui,-apple-system,Arial,sans-serif" font-size="30" font-weight="700" fill="#4db8ff" text-anchor="end">36%</text>
<rect x="100" y="341" width="1000" height="16" rx="8" fill="#ffffff" fill-opacity="0.08"/><rect x="100" y="341" width="362.3" height="16" rx="8" fill="url(#bar)"/>
<text x="100" y="415" font-family="system-ui,-apple-system,Arial,sans-serif" font-size="28" font-weight="500" fill="#b4d2ff" fill-opacity="0.85">Nanotech Track</text>
<text x="860" y="415" font-family="system-ui,-apple-system,Arial,sans-serif" font-size="30" font-weight="700" fill="#ffffff" text-anchor="end">1 / 40</text>
<text x="1060" y="415" font-family="system-ui,-apple-system,Arial,sans-serif" font-size="30" font-weight="700" fill="#4db8ff" text-anchor="end">3%</text>
<rect x="100" y="437" width="1000" height="16" rx="8" fill="#ffffff" fill-opacity="0.08"/><rect x="100" y="437" width="25.0" height="16" rx="8" fill="url(#bar)"/>
<text x="100" y="583" font-family="system-ui,-apple-system,Arial,sans-serif" font-size="16" fill="#7cc8f8" fill-opacity="0.48">immortalityindex.github.io/immortality-index</text>
<text x="1100" y="583" font-family="system-ui,-apple-system,Arial,sans-serif" font-size="15" fill="#7cc8f8" fill-opacity="0.36" text-anchor="end">July 2026</text>
</svg>